<?xml version="1.0" encoding="UTF-8"?><svg id="Layer_2" xmlns="http://www.w3.org/2000/svg" viewBox="0 0 61.34 90.61"><defs><style>.cls-1{fill:#23a7be;}.cls-1,.cls-2,.cls-3{stroke-width:0px;}.cls-2{fill:#fff;}.cls-3{fill:#010101;}</style></defs><g id="Large_Icons"><g id="Layer_2-2"><g id="Layer_1-2"><g id="Wayfinding_Signage"><path class="cls-3" d="m61.34,30.36c0,5.05-1.27,10.04-3.7,14.47l-26.47,45.43c-.25.45-.69.45-.96,0L3.77,44.89C1.32,40.43.04,35.43.04,30.36c0-1.21.07-2.43.22-3.62C2.08,11.49,15.18,0,30.69,0s28.61,11.49,30.43,26.72c.14,1.21.22,2.43.22,3.64Z"/></g></g></g><g id="Layer_1-3"><g id="Layer_1-4"><g id="Bicycle-Friendly_Intersection"><path class="cls-3" d="m61.32,30.36c0,5.05-1.27,10.04-3.7,14.47l-26.49,45.43c-.27.45-.69.45-.96,0L3.73,44.89c-2.45-4.46-3.73-9.46-3.73-14.53,0-1.21.07-2.43.22-3.62C2.05,11.49,15.13,0,30.65,0s28.61,11.49,30.43,26.74c.14,1.2.22,2.41.24,3.62Z"/><path class="cls-1" d="m61.34,30.36c0,5.05-1.27,10.04-3.7,14.47l-26.49,45.43c-.27.45-.69.45-.96,0L3.75,44.89C1.3,40.43.02,35.43.02,30.36c0-1.21.07-2.43.22-3.62C2.07,11.49,15.14,0,30.67,0s28.61,11.49,30.43,26.74c.14,1.2.22,2.41.24,3.62Z"/><path class="cls-2" d="m42.13,38.89c-3.89,0-7.05-3.15-7.05-7.03s3.15-7.05,7.03-7.05,7.05,3.15,7.05,7.03v.02c0,3.87-3.15,7.02-7.03,7.03Zm0-12.84c-3.2,0-5.79,2.59-5.81,5.79,0,3.2,2.59,5.79,5.79,5.81,3.2,0,5.79-2.59,5.81-5.79h0c-.02-3.22-2.61-5.81-5.79-5.81h0Z"/><path class="cls-2" d="m20.04,38.89c-3.89,0-7.05-3.15-7.05-7.03s3.15-7.05,7.03-7.05,7.05,3.15,7.05,7.03h0c.02,3.89-3.13,7.03-7.03,7.05Zm0-12.84c-3.2,0-5.79,2.59-5.81,5.79s2.59,5.79,5.79,5.81c3.2.02,5.79-2.59,5.81-5.79h0c0-3.22-2.57-5.81-5.79-5.81h0Z"/><path class="cls-2" d="m29.25,32.47h-9.19c-.34,0-.63-.27-.63-.63,0-.13.04-.25.11-.34l6.24-9.35c.11-.18.31-.27.52-.27h11.64c.34,0,.63.27.63.63s-.27.63-.63.63h-11.3l-5.41,8.11h8.02c.34,0,.63.29.63.63,0,.31-.31.59-.63.59h0Z"/><path class="cls-2" d="m32.58,30.92c-.34,0-.63-.29-.61-.63,0-.14.05-.29.14-.4l5.67-6.87c.23-.25.63-.27.88-.05.23.22.27.58.09.83l-5.67,6.87c-.14.16-.32.25-.5.25Z"/><path class="cls-2" d="m30.33,30.65c-.23,0-.43-.13-.56-.32l-4.89-9.14c-.18-.29-.07-.68.22-.85s.68-.07.85.22c.02.02.02.04.04.05l4.89,9.14c.16.31.05.68-.25.85-.07.02-.16.05-.29.05h0Z"/><path class="cls-2" d="m42.13,32.47c-.23,0-.47-.14-.56-.36l-5.41-12.09c-.27-.59-.4-.88-.54-.95-.2-.11-.76-.11-1.58-.11-.34,0-.63-.29-.63-.63s.27-.63.63-.63c2.18,0,2.5.07,3.26,1.8l5.41,12.09c.14.31,0,.68-.31.83-.09.04-.18.05-.27.05Z"/><path class="cls-2" d="m23.05,18.89c.11-.02.2-.02.31-.02.7,0,1.33.36,2.3.45.58.05,1.08.04,1.47.07.18,0,.34.05.5.13.14.07.25.22.27.38,0,.04,0,.07.02.11,0,.16-.07.31-.2.4-.34.29-1.01.4-1.85.54-.56.09-.94.29-1.47.29h0c-.38,0-.81-.11-1.4-.43-.56-.31-.85-.68-.85-1.06,0-.43.36-.76.9-.85"/><path class="cls-2" d="m30.69,36.01h-.09c-.34-.05-.58-.38-.52-.72h0l.56-3.63c.05-.34.38-.58.7-.52s.58.38.52.7h0l-.58,3.63c-.02.32-.27.54-.59.54Z"/><path class="cls-2" d="m31.12,36.37h-2.18c-.34,0-.63-.27-.63-.63s.27-.63.63-.63h2.18c.34,0,.63.29.63.63-.02.36-.29.63-.63.63Z"/><path class="cls-2" d="m31.55,30.61h-.09c-.34-.05-.58-.38-.52-.7h0l.29-1.87c.04-.34.34-.59.68-.56.34.04.59.34.56.68,0,.02,0,.04-.02.05l-.29,1.85c-.07.31-.31.54-.61.54Z"/><path class="cls-2" d="m33.48,28.26h-2.18c-.34,0-.63-.29-.63-.63s.27-.63.63-.63h2.18c.34,0,.63.29.63.63s-.27.63-.63.63h0Z"/><path class="cls-2" d="m31.32,34.32c-1.37,0-2.48-1.12-2.5-2.48,0-1.37,1.12-2.48,2.48-2.5,1.37,0,2.48,1.12,2.5,2.48h0c0,1.39-1.13,2.5-2.48,2.5Zm0-3.72c-.68,0-1.24.56-1.24,1.24s.56,1.24,1.24,1.24,1.24-.56,1.24-1.24h0c-.02-.68-.56-1.24-1.24-1.24h0Z"/><path class="cls-2" d="m54.65,16.55c0-.75-.54-1.41-1.29-1.56l-21.89-7.15c-.13-.03-.27-.03-.4-.02-.13,0-.27,0-.4.02l-21.89,7.15c-.75.16-1.29.81-1.29,1.56v28.17c0,.69.48,1.26,1.13,1.41.18.08.38.12.59.12h43.92c.52,0,.97-.28,1.23-.69.17-.24.28-.53.28-.84v-28.17Zm-43.68.95l19.44-6.55c.43-.15.9-.15,1.33,0l19.44,6.55c.3.06.51.32.51.62v25.17H10.46v-25.17c0-.3.21-.56.51-.62Z"/></g></g></g></g></svg>