<?xml version="1.0" encoding="UTF-8"?><svg id="Layer_2" xmlns="http://www.w3.org/2000/svg" viewBox="0 0 61.31 90.61"><defs><style>.cls-1{fill:#23a7be;}.cls-1,.cls-2,.cls-3{stroke-width:0px;}.cls-2{fill:#fff;}.cls-3{fill:#010101;}</style></defs><g id="Large_Icons"><g id="Layer_2-2"><g id="Layer_1-2"><g id="Wayfinding_Signage"><path class="cls-3" d="m61.3,30.36c0,5.05-1.27,10.04-3.7,14.47l-26.47,45.43c-.25.45-.69.45-.96,0L3.73,44.89c-2.45-4.46-3.73-9.46-3.73-14.53,0-1.21.07-2.43.22-3.62C2.05,11.49,15.14,0,30.65,0s28.61,11.49,30.43,26.72c.14,1.21.22,2.43.22,3.64Z"/></g></g></g><g id="Layer_1-3"><g id="Layer_1-4"><g id="Signalized_Crossing"><path class="cls-1" d="m61.31,30.36c0,5.05-1.27,10.04-3.7,14.47l-26.47,45.43c-.27.45-.69.45-.96,0L3.74,44.91C1.29,40.45,0,35.45,0,30.38c0-1.21.07-2.43.22-3.62C2.05,11.5,15.13.02,30.66.02s28.61,11.49,30.43,26.72c.14,1.2.22,2.41.22,3.62Z"/><path class="cls-2" d="m32.23,35.76v-10.68c0-.74-.6-1.33-1.33-1.33h-.48c-.74,0-1.33.6-1.33,1.33h0v11.72c0,.74.6,1.33,1.33,1.33h.48c.74,0,1.33-.6,1.33-1.33h0v-1.03"/><path class="cls-2" d="m54.75,38.13c-2.52,0-4.58-2.04-4.58-4.57s2.04-4.58,4.57-4.58,4.58,2.04,4.58,4.57h0c0,2.52-2.04,4.57-4.57,4.58Zm0-8.34c-2.08,0-3.76,1.68-3.77,3.76,0,2.08,1.68,3.76,3.76,3.77,2.08,0,3.76-1.68,3.77-3.76h0c-.01-2.09-1.69-3.77-3.76-3.77h0Z"/><path class="cls-2" d="m40.41,38.13c-2.52,0-4.58-2.04-4.58-4.57s2.04-4.58,4.57-4.58,4.58,2.04,4.58,4.57h0c.01,2.52-2.03,4.57-4.57,4.58Zm0-8.34c-2.08,0-3.76,1.68-3.77,3.76s1.68,3.76,3.76,3.77c2.08.01,3.76-1.68,3.77-3.76h0c0-2.09-1.67-3.77-3.76-3.77h0Z"/><path class="cls-2" d="m46.39,33.96h-5.97c-.22,0-.41-.18-.41-.41,0-.08.02-.16.07-.22l4.05-6.07c.07-.12.2-.18.34-.18h7.56c.22,0,.41.18.41.41s-.18.41-.41.41h-7.33l-3.51,5.27h5.21c.22,0,.41.19.41.41,0,.2-.2.39-.41.39h0Z"/><path class="cls-2" d="m48.55,32.96c-.22,0-.41-.19-.4-.41,0-.09.04-.19.09-.26l3.68-4.46c.15-.16.41-.18.57-.04.15.14.18.37.06.54l-3.68,4.46c-.09.11-.21.16-.33.16Z"/><path class="cls-2" d="m47.09,32.78c-.15,0-.28-.08-.36-.21l-3.18-5.93c-.12-.19-.05-.44.14-.55s.44-.05.55.14c.01.01.01.02.02.04l3.18,5.93c.11.2.04.44-.16.55-.05.01-.11.04-.19.04h0Z"/><path class="cls-2" d="m54.75,33.96c-.15,0-.3-.09-.36-.23l-3.51-7.85c-.18-.39-.26-.57-.35-.62-.13-.07-.49-.07-1.03-.07-.22,0-.41-.19-.41-.41s.18-.41.41-.41c1.41,0,1.62.05,2.11,1.17l3.51,7.85c.09.2,0,.44-.2.54-.06.02-.12.04-.18.04Z"/><path class="cls-2" d="m42.36,25.14c.07-.01.13-.01.2-.01.46,0,.86.23,1.49.29.37.04.7.02.96.05.12,0,.22.04.33.08.09.05.16.14.18.25,0,.02,0,.05.01.07,0,.11-.05.2-.13.26-.22.19-.65.26-1.2.35-.36.06-.61.19-.96.19h0c-.25,0-.53-.07-.91-.28-.36-.2-.55-.44-.55-.69,0-.28.23-.49.58-.55"/><path class="cls-2" d="m47.32,36.26h-.06c-.22-.04-.37-.25-.34-.47h0l.36-2.36c.04-.22.25-.37.46-.34s.37.25.34.46h0l-.37,2.36c-.01.21-.18.35-.39.35Z"/><path class="cls-2" d="m47.6,36.49h-1.41c-.22,0-.41-.18-.41-.41s.18-.41.41-.41h1.41c.22,0,.41.19.41.41-.01.23-.19.41-.41.41Z"/><path class="cls-2" d="m47.88,32.76h-.06c-.22-.04-.37-.25-.34-.46h0l.19-1.21c.02-.22.22-.39.44-.36.22.02.39.22.36.44,0,.01,0,.02-.01.04l-.19,1.2c-.05.2-.2.35-.4.35Z"/><path class="cls-2" d="m49.13,31.23h-1.41c-.22,0-.41-.19-.41-.41s.18-.41.41-.41h1.41c.22,0,.41.19.41.41s-.18.41-.41.41h0Z"/><path class="cls-2" d="m47.73,35.16c-.89,0-1.61-.72-1.62-1.61,0-.89.72-1.61,1.61-1.62.89,0,1.61.72,1.62,1.61h0c0,.9-.74,1.62-1.61,1.62Zm0-2.42c-.44,0-.81.36-.81.81s.36.81.81.81.81-.36.81-.81h0c-.01-.44-.36-.81-.81-.81h0Z"/><path class="cls-2" d="m24.23,28.14c0-.08-.06-.16-.12-.22-.16-.16-.67-.23-1.53-.22l-.46-.86h0s-.62-1.16-.62-1.16c0-.02-.02-.03-.03-.05-.81-1.22-1.69-1.99-7.11-2-5.42,0-6.3.77-7.11,2-.01.01-.02.03-.03.05l-.62,1.16h0s-.46.86-.46.86c-.86,0-1.37.07-1.53.22-.06.06-.12.14-.12.22,0,.6.26.96.82,1.12l-.31.59c-.1.19-.17.47-.17.69v6.72c0,.48.38.87.86.87h.58c.47,0,.86-.39.86-.87v-.87h14.46v.87c0,.48.38.87.86.87h.58c.47,0,.86-.39.86-.87v-6.72c0-.21-.07-.5-.17-.69l-.31-.59c.56-.17.82-.52.82-1.12Zm-16.56-.81h0s.58-1.08.58-1.08c.27-.41.48-.71,1.19-.95.92-.32,2.53-.49,4.94-.5,2.4,0,4.01.18,4.93.5.72.25.92.54,1.19.95l.58,1.08h0s.82,1.53.82,1.53H6.86l.82-1.53Zm.07,5.6c-.64,0-1.16-.52-1.16-1.16,0-.64.52-1.16,1.16-1.16.64,0,1.16.52,1.16,1.16,0,.64-.52,1.16-1.16,1.16Zm13.25,0c-.64,0-1.16-.52-1.16-1.16,0-.64.52-1.16,1.16-1.16.64,0,1.16.52,1.16,1.16,0,.64-.52,1.16-1.16,1.16Z"/></g></g></g></g></svg>