<?xml version="1.0" encoding="UTF-8"?><svg id="Layer_2" xmlns="http://www.w3.org/2000/svg" viewBox="0 0 61.3 90.59"><defs><style>.cls-1{stroke-width:1.6px;}.cls-1,.cls-2{fill:#fbb040;}.cls-1,.cls-2,.cls-3{stroke:#fff;stroke-linecap:round;stroke-miterlimit:10;}.cls-2,.cls-3{stroke-width:.6px;}.cls-3{fill:none;}.cls-4{fill:#23a7be;}.cls-4,.cls-5{stroke-width:0px;}.cls-5{fill:#fff;}</style></defs><g id="Large_Icons"><path class="cls-4" d="m61.3,30.34c0,5.05-1.27,10.04-3.7,14.47l-26.47,45.43c-.27.45-.69.45-.96,0L3.73,44.89c-2.45-4.46-3.73-9.46-3.73-14.53,0-1.21.07-2.43.22-3.62C2.05,11.49,15.13,0,30.65,0s28.61,11.49,30.43,26.72c.14,1.2.22,2.41.22,3.62Z"/><path class="cls-5" d="m29.31,24.71c0-.11-.08-.21-.15-.28-.21-.2-.87-.3-1.97-.29l-.59-1.11h0s-.79-1.5-.79-1.5c-.01-.02-.02-.04-.04-.06-1.04-1.58-2.17-2.56-9.16-2.57-6.98,0-8.12.99-9.16,2.57-.01.02-.03.04-.04.06l-.79,1.49h0s-.59,1.11-.59,1.11c-1.1,0-1.77.09-1.97.29-.08.08-.15.18-.15.28,0,.78.33,1.23,1.05,1.45l-.4.75c-.13.24-.22.61-.22.88v8.66c0,.62.49,1.12,1.1,1.12h.75c.61,0,1.11-.5,1.11-1.12v-1.12h18.63v1.12c0,.62.5,1.12,1.1,1.12h.75c.61,0,1.1-.5,1.1-1.12v-8.66c0-.28-.09-.64-.22-.88l-.4-.75c.72-.21,1.05-.67,1.05-1.45Zm-21.33-1.05h0s.74-1.4.74-1.4c.35-.53.61-.91,1.53-1.23,1.19-.41,3.27-.64,6.36-.64,3.09,0,5.17.23,6.36.64.92.32,1.19.7,1.53,1.23l.74,1.4h0s1.05,1.96,1.05,1.96H6.92l1.05-1.96Zm.09,7.21c-.82,0-1.49-.67-1.49-1.5,0-.83.67-1.49,1.5-1.49.83,0,1.49.67,1.49,1.5,0,.83-.67,1.49-1.5,1.49Zm17.07,0c-.83,0-1.5-.67-1.5-1.49,0-.83.67-1.49,1.49-1.5.83,0,1.5.67,1.5,1.49,0,.83-.67,1.5-1.49,1.5Z"/><path class="cls-5" d="m39.18,37.24l-.99-.39v-8.09c0-.28-.38-.51-.85-.51-.52,0-.93.25-.93.56v8.04l-.99.39c-.08.03-.13.09-.13.14v.03c0,.1.13.17.29.17h3.44c.16,0,.29-.08.29-.17v-.03c0-.06-.05-.11-.13-.14Z"/><path class="cls-5" d="m48.54,34.19c0,.81-1.32.95-1.43.11l-.82-5.94h0c-.1-.49.09-.73.66-1.25l2.05-2.04h1.26v2.52h0l-1.29.25c-.23.08-.39.3-.4.54l-.04,5.8Z"/><path class="cls-5" d="m52.97,34.21c0,.81,1.32.95,1.43.11l.82-5.94h0c.1-.49-.09-.73-.66-1.25l-2.05-2.04h-1.26v2.52h0l1.29.25c.23.08.39.3.4.54l.04,5.8Z"/><line class="cls-2" x1="47.1" y1="24.57" x2="54.43" y2="24.57"/><line class="cls-2" x1="50.76" y1="24.59" x2="50.76" y2="28.09"/><line class="cls-1" x1="50.76" y1="30.01" x2="50.76" y2="37.56"/><path class="cls-3" d="m49.13,35.52v-6.53c0-.37.3-.67.67-.67h1.93c.37,0,.67.3.67.67v6.53"/><path class="cls-5" d="m52.3,16.38c0,.77-.49,1.42-1.16,1.61-.12.03-.25.05-.39.05-.85,0-1.55-.74-1.55-1.65v-.83c0-.77.49-1.42,1.16-1.61.12-.03.25-.05.39-.05.85,0,1.55.74,1.55,1.66v.83Z"/><path class="cls-5" d="m52.57,24.06l.15-2.23c.06-.25.27-.31.47-.16,0,0,.82.69,1.03.81.02.1.07,1.77.07,1.77.05.62.31.93.77.97.45.04.98-.2.96-.8l-.1-1.77c-.05-.45-.04-.93-.33-1.28-.28-.34-2.95-3.11-3.77-3.21-.31.21-.68.33-1.06.33-.38,0-.75-.12-1.06-.33-.83.1-3.5,2.88-3.77,3.21-.29.35-.28.82-.33,1.28l-.1,1.77c-.02.6.5.84.96.8.46-.04.72-.36.76-.97,0,0,.06-1.67.07-1.77.21-.13,1.03-.81,1.03-.81.2-.16.41-.09.47.16l.14,2.23h3.64Z"/><path class="cls-5" d="m48.53,34.21c0,.81-1.32.95-1.44.11l-.83-5.95h0c-.1-.49.09-.74.67-1.25l2.05-2.05h1.27v2.75h0l-.92.03c-.25.01-.77.58-.77.83l-.04,5.53Z"/><path class="cls-5" d="m52.98,34.21c0,.81,1.32.95,1.44.11l.83-5.95h0c.1-.49-.09-.74-.67-1.25l-2.05-2.05h-1.27v2.75h0l.92.03c.25.01.77.58.77.83l.04,5.53Z"/><line class="cls-2" x1="47.08" y1="24.56" x2="54.43" y2="24.56"/><line class="cls-2" x1="50.76" y1="24.58" x2="50.76" y2="28.08"/><line class="cls-1" x1="50.76" y1="30.01" x2="50.76" y2="37.58"/><path class="cls-3" d="m49.12,35.54v-6.54c0-.37.3-.67.67-.67h1.93c.37,0,.67.3.67.67v6.54"/><path class="cls-5" d="m52.3,16.35c0,.77-.49,1.42-1.16,1.61-.12.03-.25.05-.39.05-.85,0-1.55-.74-1.55-1.66v-.83c0-.77.49-1.43,1.16-1.61.12-.03.25-.05.39-.05.85,0,1.55.75,1.55,1.66v.83Z"/><path class="cls-5" d="m52.57,24.05l.15-2.24c.06-.25.27-.31.47-.16,0,0,.82.69,1.04.82.02.1.07,1.78.07,1.78.05.62.31.93.77.98.46.04.98-.2.96-.8l-.1-1.78c-.05-.46-.04-.93-.33-1.28-.28-.34-2.95-3.12-3.78-3.22-.31.21-.68.33-1.06.33-.38,0-.75-.12-1.06-.33-.83.1-3.51,2.89-3.78,3.22-.29.35-.28.83-.33,1.28l-.1,1.78c-.02.6.5.84.96.8.46-.04.72-.36.77-.98,0,0,.06-1.68.07-1.78.21-.13,1.04-.82,1.04-.82.2-.16.41-.09.47.16l.14,2.24h3.65Z"/></g></svg>