<?xml version="1.0" encoding="UTF-8"?><svg id="Layer_2" xmlns="http://www.w3.org/2000/svg" viewBox="0 0 61.3 90.61"><defs><style>.cls-1{fill:#23a7be;}.cls-1,.cls-2,.cls-3{stroke-width:0px;}.cls-2{fill:#fff;}.cls-3{fill:#010101;}</style></defs><g id="Large_Icons"><g id="Layer_2-2"><g id="Layer_1-2"><g id="Wayfinding_Signage"><path class="cls-3" d="m61.3,30.36c0,5.05-1.27,10.04-3.7,14.47l-26.47,45.43c-.25.45-.69.45-.96,0L3.73,44.89c-2.45-4.46-3.73-9.46-3.73-14.53,0-1.21.07-2.43.22-3.62C2.05,11.49,15.14,0,30.65,0s28.61,11.49,30.43,26.72c.14,1.21.22,2.43.22,3.64Z"/></g></g></g><g id="Layer_1-3"><g id="Layer_1-4"><g id="Signalized_Crossing"><path class="cls-1" d="m61.3,30.36c0,5.05-1.27,10.04-3.7,14.47l-26.47,45.43c-.27.45-.69.45-.96,0L3.73,44.91c-2.45-4.46-3.73-9.46-3.73-14.53,0-1.21.07-2.43.22-3.62C2.05,11.5,15.13.02,30.65.02s28.61,11.49,30.43,26.72c.14,1.2.22,2.41.22,3.62Z"/><path class="cls-2" d="m36.83,49.55h.02c.38,0,.69.31.69.69v3.88c0,.38-.31.69-.69.69h-.02c-.38,0-.69-.31-.69-.69v-3.88c0-.38.31-.69.69-.69Z"/><path class="cls-2" d="m36.85,54.91c-.43,0-.8-.36-.8-.8v-3.86c0-.43.36-.8.8-.8h0c.43,0,.8.36.8.8v3.86c0,.43-.36.8-.8.8h0Zm0-5.27h0c-.34,0-.62.27-.62.62v3.86c0,.34.27.62.6.62h0c.16,0,.33-.07.43-.18.11-.11.18-.27.18-.43v-3.86c.02-.34-.27-.62-.6-.62h0Z"/><path class="cls-2" d="m42.55,47.68h0c.31-.24.76-.16.98.16l2.26,3.12c.24.31.16.76-.14.98h0c-.31.24-.76.16-.98-.16l-2.26-3.12c-.24-.31-.16-.76.14-.98Z"/><path class="cls-2" d="m45.25,52.16s-.09,0-.13-.02c-.22-.04-.4-.14-.53-.33l-2.26-3.12c-.13-.16-.18-.38-.14-.6.04-.22.14-.4.33-.53.36-.25.85-.18,1.12.18l2.26,3.12c.13.16.18.38.14.6-.04.22-.14.4-.33.53-.14.11-.31.16-.47.16Zm-2.28-4.53c-.34,0-.62.27-.62.62,0,.13.04.25.13.36l2.26,3.12c.2.27.58.33.85.13.13-.09.22-.24.24-.4.02-.16-.02-.33-.11-.45l-2.26-3.12c-.09-.13-.24-.22-.4-.25h-.09Z"/><path class="cls-2" d="m27.86,50.98l2.26-3.12c.24-.31.67-.38.98-.16h0c.31.24.38.67.16.98l-2.26,3.12c-.24.31-.67.38-.98.16h0c-.33-.22-.4-.67-.16-.98Z"/><path class="cls-2" d="m28.42,52.19c-.16,0-.33-.05-.47-.14h0c-.36-.25-.43-.76-.18-1.11h0l2.26-3.12c.25-.36.76-.43,1.12-.18s.43.76.18,1.11l-2.26,3.12c-.16.2-.4.33-.65.33Zm-.36-.31c.27.2.65.14.85-.13h0l2.26-3.12c.2-.27.14-.65-.13-.85s-.65-.14-.85.13l-2.26,3.12c-.2.27-.14.65.13.85h0Z"/><path class="cls-2" d="m36.81,7.46h.02c.38,0,.69.31.69.69v3.88c0,.38-.31.69-.69.69h-.02c-.38,0-.69-.31-.69-.69v-3.88c0-.38.31-.69.69-.69Z"/><path class="cls-2" d="m36.83,12.83c-.43,0-.8-.36-.8-.8v-3.86c0-.43.36-.8.8-.8h0c.43,0,.8.36.8.8v3.86c0,.43-.34.8-.8.8h0Zm0-5.27h0c-.34,0-.62.27-.62.62h0v3.86c0,.16.07.33.18.43s.27.18.43.18c.34,0,.62-.27.62-.62v-3.86c0-.34-.27-.62-.62-.62h0Z"/><path class="cls-2" d="m28.01,10.34h0c.31-.24.76-.16.98.16l2.26,3.12c.24.31.16.76-.14.98h0c-.31.24-.76.16-.98-.16l-2.26-3.12c-.24-.31-.16-.74.14-.98Z"/><path class="cls-2" d="m30.71,14.84c-.25,0-.49-.13-.65-.33l-2.28-3.12c-.25-.36-.18-.85.18-1.12.36-.25.85-.18,1.12.18l2.26,3.12c.25.36.18.85-.18,1.12-.13.09-.29.14-.45.14Zm-2.28-4.53c-.13,0-.25.04-.36.13-.27.2-.33.58-.13.85l2.26,3.12c.2.27.58.33.85.13.27-.2.33-.58.13-.85l-2.26-3.12c-.11-.16-.29-.25-.49-.25Z"/><path class="cls-2" d="m42.41,13.61l2.26-3.12c.24-.31.67-.38.98-.16h0c.31.24.38.67.16.98l-2.26,3.12c-.24.31-.67.38-.98.16h0c-.33-.24-.4-.67-.16-.98Z"/><path class="cls-2" d="m42.99,14.82c-.16,0-.33-.05-.47-.14-.36-.25-.43-.76-.18-1.11h0l2.26-3.15c.25-.36.76-.43,1.11-.18s.43.76.18,1.12h0l-2.26,3.12c-.14.22-.38.34-.63.34Zm2.26-4.53h-.09c-.16.02-.31.11-.4.25l-2.26,3.12c-.09.13-.13.29-.11.45.05.33.36.56.71.51.16-.02.31-.11.4-.25l2.26-3.12c.2-.27.14-.65-.13-.85-.14-.09-.27-.13-.38-.11h0Z"/><path class="cls-2" d="m11.68,37.23v-13.66c0-.94-.76-1.7-1.7-1.7h-.62c-.94,0-1.7.76-1.7,1.7h0v14.98c0,.94.76,1.7,1.7,1.7h.62c.94,0,1.7-.76,1.7-1.7h0v-1.32"/><polyline class="cls-2" points="11.58 36.61 15.02 36.61 15.02 25.49 11.58 25.49"/><path class="cls-2" d="m43.1,45h-23.57c-2.68,0-4.84-2.17-4.86-4.84v-18.21c0-2.68,2.17-4.84,4.86-4.84h23.57c2.68,0,4.84,2.17,4.86,4.84v18.19c-.02,2.68-2.17,4.84-4.86,4.86Zm-23.57-25.13c-1.14,0-2.08.94-2.08,2.08v18.19c0,1.14.94,2.08,2.08,2.08h23.57c1.16,0,2.08-.92,2.08-2.08h0v-18.19c0-1.16-.94-2.08-2.08-2.08h-23.57Z"/><path class="cls-2" d="m38.65,37.99c-2.57,0-4.67-2.08-4.67-4.65s2.08-4.67,4.65-4.67,4.67,2.08,4.67,4.65h0c0,2.57-2.08,4.65-4.65,4.67Zm0-8.5c-2.12,0-3.83,1.71-3.84,3.83,0,2.12,1.71,3.83,3.83,3.84,2.12,0,3.83-1.71,3.84-3.83h0c-.01-2.13-1.73-3.84-3.83-3.84h0Z"/><path class="cls-2" d="m24.04,37.99c-2.57,0-4.67-2.08-4.67-4.65s2.08-4.67,4.65-4.67,4.67,2.08,4.67,4.65h0c.01,2.57-2.07,4.65-4.65,4.67Zm0-8.5c-2.12,0-3.83,1.71-3.84,3.83s1.71,3.83,3.83,3.84c2.12.01,3.83-1.71,3.84-3.83h0c0-2.13-1.7-3.84-3.83-3.84h0Z"/><path class="cls-2" d="m30.13,33.74h-6.08c-.23,0-.42-.18-.42-.42,0-.08.02-.17.07-.23l4.13-6.19c.07-.12.2-.18.35-.18h7.7c.23,0,.42.18.42.42s-.18.42-.42.42h-7.47l-3.58,5.37h5.31c.23,0,.42.19.42.42,0,.2-.2.39-.42.39h0Z"/><path class="cls-2" d="m32.33,32.71c-.23,0-.42-.19-.4-.42,0-.1.04-.19.1-.26l3.75-4.55c.15-.17.42-.18.58-.04.15.14.18.38.06.55l-3.75,4.55c-.1.11-.21.17-.33.17Z"/><path class="cls-2" d="m30.84,32.53c-.15,0-.29-.08-.37-.21l-3.24-6.05c-.12-.19-.05-.45.14-.56s.45-.05.56.14c.01.01.01.02.02.04l3.24,6.05c.11.2.04.45-.17.56-.05.01-.11.04-.19.04h0Z"/><path class="cls-2" d="m38.65,33.74c-.15,0-.31-.1-.37-.24l-3.58-8c-.18-.39-.26-.58-.36-.63-.13-.07-.5-.07-1.05-.07-.23,0-.42-.19-.42-.42s.18-.42.42-.42c1.44,0,1.65.05,2.15,1.19l3.58,8c.1.2,0,.45-.2.55-.06.02-.12.04-.18.04Z"/><path class="cls-2" d="m26.02,24.75c.07-.01.13-.01.2-.01.46,0,.88.24,1.52.3.38.04.71.02.98.05.12,0,.23.04.33.08.1.05.17.14.18.25,0,.02,0,.05.01.07,0,.11-.05.2-.13.26-.23.19-.67.26-1.23.36-.37.06-.62.19-.98.19h0c-.25,0-.54-.07-.93-.29-.37-.2-.56-.45-.56-.7,0-.29.24-.5.6-.56"/><path class="cls-2" d="m31.08,36.08h-.06c-.23-.04-.38-.25-.35-.48h0l.37-2.4c.04-.23.25-.38.46-.35s.38.25.35.46h0l-.38,2.4c-.01.21-.18.36-.39.36Z"/><path class="cls-2" d="m31.37,36.32h-1.44c-.23,0-.42-.18-.42-.42s.18-.42.42-.42h1.44c.23,0,.42.19.42.42-.01.24-.19.42-.42.42Z"/><path class="cls-2" d="m31.65,32.51h-.06c-.23-.04-.38-.25-.35-.46h0l.19-1.24c.02-.23.23-.39.45-.37.23.02.39.23.37.45,0,.01,0,.02-.01.04l-.19,1.23c-.05.2-.2.36-.4.36Z"/><path class="cls-2" d="m32.93,30.95h-1.44c-.23,0-.42-.19-.42-.42s.18-.42.42-.42h1.44c.23,0,.42.19.42.42s-.18.42-.42.42h0Z"/><path class="cls-2" d="m31.5,34.96c-.9,0-1.64-.74-1.65-1.64,0-.9.74-1.64,1.64-1.65.9,0,1.64.74,1.65,1.64h0c0,.92-.75,1.65-1.64,1.65Zm0-2.46c-.45,0-.82.37-.82.82s.37.82.82.82.82-.37.82-.82h0c-.01-.45-.37-.82-.82-.82h0Z"/></g></g></g></g></svg>